<?xml version="1.0" encoding="UTF-8" standalone="no"?>
<!-- Created with Inkscape (http://www.inkscape.org/) -->

<svg
   xmlns:dc="http://purl.org/dc/elements/1.1/"
   xmlns:cc="http://creativecommons.org/ns#"
   xmlns:rdf="http://www.w3.org/1999/02/22-rdf-syntax-ns#"
   xmlns:svg="http://www.w3.org/2000/svg"
   xmlns="http://www.w3.org/2000/svg"
   xmlns:sodipodi="http://sodipodi.sourceforge.net/DTD/sodipodi-0.dtd"
   xmlns:inkscape="http://www.inkscape.org/namespaces/inkscape"
   id="svg2"
   version="1.1"
   inkscape:version="0.91 r"
   xml:space="preserve"
   width="610"
   height="150"
   viewBox="0 0 610.00004 150"
   sodipodi:docname="YouthMobileUnesco.svg"
   inkscape:export-filename="/home/makeman/git/2016.fossasia.org/img/YouthMobileUnesco.png"
   inkscape:export-xdpi="72"
   inkscape:export-ydpi="72"><metadata
     id="metadata8"><rdf:RDF><cc:Work
         rdf:about=""><dc:format>image/svg+xml</dc:format><dc:type
           rdf:resource="http://purl.org/dc/dcmitype/StillImage" /><dc:title></dc:title></cc:Work></rdf:RDF></metadata><defs
     id="defs6"><clipPath
       clipPathUnits="userSpaceOnUse"
       id="clipPath16"><path
         d="m 0,223.679 643.346,0 L 643.346,0 0,0 0,223.679 Z"
         id="path18"
         inkscape:connector-curvature="0" /></clipPath><clipPath
       clipPathUnits="userSpaceOnUse"
       id="clipPath68"><path
         d="m 532.571,144.494 15.378,0 0,-9.425 -15.378,0 0,9.425 z"
         id="path70"
         inkscape:connector-curvature="0" /></clipPath></defs><sodipodi:namedview
     pagecolor="#ffffff"
     bordercolor="#666666"
     borderopacity="1"
     objecttolerance="10"
     gridtolerance="10"
     guidetolerance="10"
     inkscape:pageopacity="0"
     inkscape:pageshadow="2"
     inkscape:window-width="1366"
     inkscape:window-height="741"
     id="namedview4"
     showgrid="false"
     fit-margin-top="0"
     fit-margin-left="0"
     fit-margin-right="0"
     fit-margin-bottom="0"
     units="px"
     inkscape:zoom="0.52724351"
     inkscape:cx="-7.9445732"
     inkscape:cy="-118.85899"
     inkscape:window-x="0"
     inkscape:window-y="0"
     inkscape:window-maximized="1"
     inkscape:current-layer="g10" /><g
     id="g10"
     inkscape:groupmode="layer"
     inkscape:label="YouthMobileUnesco"
     transform="matrix(1.25,0,0,-1.25,-126.48563,253.13173)"><g
       id="g12"
       transform="translate(20.324673,27.497754)"><g
         id="g14"
         clip-path="url(#clipPath16)"><g
           id="g20"
           transform="translate(545.0776,127.915)"><path
             d="m 0,0 c -0.32,-0.965 -1.653,-2.159 -2.939,-1.905 l -10.915,3.623 c -0.72,0.238 -1.894,1.895 -1.576,2.86 l 3.583,10.918 c 0.321,0.965 2.017,2.027 2.738,1.789 l 11.2,-3.731 C 2.808,13.317 3.847,11.867 3.316,10.125 L 0,0 Z"
             style="fill:#100f0d;fill-opacity:1;fill-rule:nonzero;stroke:none"
             id="path22"
             inkscape:connector-curvature="0" /></g><g
           id="g24"
           transform="translate(523.1733,101.728)"><path
             d="m 0,0 c 0,-17.785 0.369,-18.222 -10.631,-18.222 l -11.579,0 C -39,-18.222 -39,-17.785 -39,0 l 0,33.119 c 0,11.575 0,11.659 16.79,11.659 l 11.579,0 c 11.766,0 10.297,0 10.631,-11.659 L 0,0 Z"
             style="fill:#12110f;fill-opacity:1;fill-rule:nonzero;stroke:none"
             id="path26"
             inkscape:connector-curvature="0" /></g><g
           id="g28"
           transform="translate(523.1733,101.728)"><path
             d="m 0,0 c 0,-17.785 0.369,-18.222 -10.631,-18.222 l -11.579,0 C -39,-18.222 -39,-17.785 -39,0 l 0,33.119 c 0,11.575 0,11.659 16.79,11.659 l 11.579,0 c 11.766,0 10.297,0 10.631,-11.659 L 0,0 Z"
             style="fill:none;stroke:#100f0d;stroke-width:2;stroke-linecap:butt;stroke-linejoin:miter;stroke-miterlimit:10;stroke-dasharray:none;stroke-opacity:1"
             id="path30"
             inkscape:connector-curvature="0" /></g><g
           id="g32"
           transform="translate(520.6733,107.3472)"><path
             d="m 0,0 c 0,-13.932 1.191,-14.341 -8.519,-14.341 l -10.219,0 C -33.559,-14.341 -34,-13.932 -34,0 l 0,25.941 c 0,9.068 0.441,8.718 15.262,8.718 l 10.219,0 C 1.866,34.659 0,35.075 0,25.941 L 0,0 Z"
             style="fill:#ffffff;fill-opacity:1;fill-rule:nonzero;stroke:none"
             id="path34"
             inkscape:connector-curvature="0" /></g><g
           id="g36"
           transform="translate(520.6733,107.3472)"><path
             d="m 0,0 c 0,-13.932 1.191,-14.341 -8.519,-14.341 l -10.219,0 C -33.559,-14.341 -34,-13.932 -34,0 l 0,25.941 c 0,9.068 0.441,8.718 15.262,8.718 l 10.219,0 C 1.866,34.659 0,35.075 0,25.941 L 0,0 Z"
             style="fill:none;stroke:#100f0d;stroke-width:1;stroke-linecap:butt;stroke-linejoin:miter;stroke-miterlimit:10;stroke-dasharray:none;stroke-opacity:1"
             id="path38"
             inkscape:connector-curvature="0" /></g><g
           id="g40"
           transform="translate(519.3384,141.2061)"><path
             d="m 0,0 c -2.596,0.261 -5.308,-1.882 -7.312,-3.203 -4.485,-2.955 -8.119,-7.02 -11.522,-11.145 -4.02,-4.872 -7.924,-10.777 -10.522,-16.548 -1.227,-2.725 -2.275,-5.659 -2.473,-8.639 -0.155,-2.332 -0.379,-6.806 1.813,-8.173 2.011,-1.251 5.634,-0.992 7.882,-0.992 l 12.133,0 c 2.612,0 5.316,0.217 7.925,0.408 3.018,0.223 2.582,1.546 2.58,4.444 -0.005,6.161 0.383,12.365 0.335,18.507 C 0.708,-8.617 1.914,-0.242 0,0"
             style="fill:#e7f7f7;fill-opacity:1;fill-rule:nonzero;stroke:none"
             id="path42"
             inkscape:connector-curvature="0" /></g><g
           id="g44"
           transform="translate(515.2935,125.7114)"><path
             d="m 0,0 c -0.493,2.612 0.783,3.545 -2.254,5.667 -1.305,0.912 -4.179,2.915 -7.033,2.915 2.108,-0.759 2.166,-1.183 2.333,-2.371 -0.292,1.813 -2.358,2.794 -4.564,2.084 -2.271,-0.732 -2.756,-1.167 -4.125,-2.838 -3.327,-4.061 -6.163,-8.695 -9.132,-13.024 -1.648,-2.403 -3.164,-4.881 -4.627,-7.4 0.765,0.382 1.796,0.198 2.625,0.259 1.401,0.105 2.605,0.693 3.864,1.273 0.454,-1.431 -0.097,-2.979 -0.231,-4.412 1.25,-0.152 2.746,1.15 3.824,1.683 1.18,0.585 2.84,1.437 4.192,1.057 0.124,-0.767 0.012,-1.616 -0.044,-2.39 1.595,0.154 3.088,1.017 4.65,1.375 1.794,0.413 3.661,0.372 5.444,0.819 1.638,0.412 3.307,0.853 4.93,1.323 1.982,0.573 3.813,1.641 5.689,2.486 C 4.477,-10.39 2.904,-10.326 1.857,-9.15 0.103,-7.18 0.339,-4.905 0.278,-2.457 0.267,-1.96 0.088,-0.718 0,0"
             style="fill:#3a1f15;fill-opacity:1;fill-rule:nonzero;stroke:#110f0d;stroke-width:0.5;stroke-linecap:butt;stroke-linejoin:miter;stroke-miterlimit:10;stroke-dasharray:none;stroke-opacity:1"
             id="path46"
             inkscape:connector-curvature="0" /></g><g
           id="g48"
           transform="translate(494.5923,97.3394)"><path
             d="m 0,0 c -0.153,-1.262 -1.075,-3.673 -1.513,-4.833 1.056,-0.21 3.469,-0.031 4.402,0.021 0.39,1.643 0.85,2.768 1.017,3.799 -1.223,-0.04 -2.758,0.636 -3.822,1.096"
             style="fill:#fbcea5;fill-opacity:1;fill-rule:nonzero;stroke:none"
             id="path50"
             inkscape:connector-curvature="0" /></g><g
           id="g52"
           transform="translate(505.7183,112.1563)"><path
             d="m 0,0 c 0,-0.978 -0.303,-2.403 0.894,-2.753 1.603,-0.471 2.89,0.708 4.074,1.604 0.912,0.69 1.814,1.399 2.76,2.045 0.859,0.585 1.819,1.043 2.683,1.609 0.549,-1.177 0.852,-2.468 1.471,-3.624 0.497,-0.929 1.074,-1.794 1.695,-2.65 0.501,-0.69 1.533,-1.579 1.596,-2.399 C 13.137,-6.273 11.183,-6.617 9.152,-6.812 8.095,-6.913 6.92,-6.891 5.892,-7.19 5.327,-7.354 5.269,-7.446 5.234,-8.014 c -0.131,-2.227 1.24,-9.907 1.659,-12.023 -0.067,0.286 -12.354,0.1 -13.098,0.004 -0.877,-0.111 0.264,1.796 0.446,4.158 0.206,0.604 0.699,1.467 0.699,2.14 0.073,-0.823 -0.577,-1.566 -0.761,-2.317 -0.088,-0.333 -5.72,1.276 -6.094,1.911 -0.691,1.174 0.345,2.915 0.376,4.183 0.034,1.406 -0.304,2.816 0.042,4.206 0.556,2.223 3.598,2.756 5.483,3 2.709,0.348 1.623,3.137 1.425,4.928"
             style="fill:#fbcea5;fill-opacity:1;fill-rule:nonzero;stroke:#110f0d;stroke-width:0.5;stroke-linecap:butt;stroke-linejoin:miter;stroke-miterlimit:10;stroke-dasharray:none;stroke-opacity:1"
             id="path54"
             inkscape:connector-curvature="0" /></g><g
           id="g56"
           transform="translate(495.7983,97.8188)"><path
             d="M 0,0 C 0.257,0.824 1.756,3.928 1.742,4.806"
             style="fill:none;stroke:#110f0d;stroke-width:0.5;stroke-linecap:butt;stroke-linejoin:miter;stroke-miterlimit:10;stroke-dasharray:none;stroke-opacity:1"
             id="path58"
             inkscape:connector-curvature="0" /></g><g
           id="g60"
           transform="translate(544.5698,128.1323)"><path
             d="m 0,0 c -0.286,-0.869 -1.799,-1.711 -2.397,-1.514 l -10.729,3.548 c -0.597,0.197 -1.44,1.819 -1.152,2.687 l 3.393,10.268 c 0.288,0.869 1.629,1.607 2.227,1.409 L 2.343,12.761 C 2.942,12.563 3.598,10.876 3.31,10.006 L 0,0 Z"
             style="fill:#f17a15;fill-opacity:1;fill-rule:nonzero;stroke:none"
             id="path62"
             inkscape:connector-curvature="0" /></g><g
           id="g64"><g
             id="g66" /><g
             id="g72"><g
               clip-path="url(#clipPath68)"
               id="g74"
               style="opacity:0.39999402"><g
                 transform="translate(532.5708,139.7461)"
                 id="g76"><path
                   d="m 0,0 c 0.196,0.597 0.461,1.406 0.655,1.982 0.214,0.64 0.356,0.91 0.568,1.551 0.256,0.775 1.745,1.375 2.342,1.177 L 14.476,1.102 c 0.598,-0.197 1.089,-1.933 0.833,-2.709 -0.373,-1.129 -0.485,-1.712 -0.92,-2.784 C 10.519,-5.614 2.489,-2.688 0,0"
                   style="fill:#fccea2;fill-opacity:1;fill-rule:nonzero;stroke:none"
                   id="path78"
                   inkscape:connector-curvature="0" /></g></g></g></g><g
           id="g80"
           transform="translate(541.9077,134.7148)"><path
             d="m 0,0 c -0.482,-1.456 -2.028,-2.261 -3.49,-1.836 -0.033,0.01 -0.067,0.02 -0.1,0.03 -0.719,0.239 -1.28,0.737 -1.613,1.357 -0.354,0.662 -0.446,1.464 -0.193,2.233 0.494,1.49 2.1,2.298 3.59,1.805 C -0.316,3.097 0.491,1.49 0,0 Z"
             style="fill:none;stroke:#ffffff;stroke-width:1;stroke-linecap:butt;stroke-linejoin:miter;stroke-miterlimit:10;stroke-dasharray:none;stroke-opacity:1"
             id="path82"
             inkscape:connector-curvature="0" /></g><g
           id="g84"
           transform="translate(541.6304,139.9995)"><path
             d="M 0,0 -1.667,0.551 -2.219,-1.115 -0.552,-1.666 0,0 Z"
             style="fill:#ffffff;fill-opacity:1;fill-rule:nonzero;stroke:none"
             id="path86"
             inkscape:connector-curvature="0" /></g><g
           id="g88"
           transform="translate(539.1265,132.4126)"><path
             d="M 0,0 -1.687,0.406 -2.312,-1.382 -0.645,-1.933 0,0 Z"
             style="fill:#ffffff;fill-opacity:1;fill-rule:nonzero;stroke:none"
             id="path90"
             inkscape:connector-curvature="0" /></g><g
           id="g92"
           transform="translate(536.564,137.4438)"><path
             d="M 0,0 -1.906,0.636 -2.456,-1.03 -0.437,-1.719 0,0 Z"
             style="fill:#ffffff;fill-opacity:1;fill-rule:nonzero;stroke:none"
             id="path94"
             inkscape:connector-curvature="0" /></g><g
           id="g96"
           transform="translate(544.1792,134.9321)"><path
             d="M 0,0 -1.666,0.551 -2.217,-1.115 -0.552,-1.666 0,0 Z"
             style="fill:#ffffff;fill-opacity:1;fill-rule:nonzero;stroke:none"
             id="path98"
             inkscape:connector-curvature="0" /></g><g
           id="g100"
           transform="translate(543.3735,138.4854)"><path
             d="M 0,0 -1.568,-0.789 -0.95,-2.463 0.788,-1.567 0,0 Z"
             style="fill:#ffffff;fill-opacity:1;fill-rule:nonzero;stroke:none"
             id="path102"
             inkscape:connector-curvature="0" /></g><g
           id="g104"
           transform="translate(536.1577,135.1157)"><path
             d="M 0,0 -2.111,-0.925 -1.323,-2.494 0.52,-1.586 0,0 Z"
             style="fill:#ffffff;fill-opacity:1;fill-rule:nonzero;stroke:none"
             id="path106"
             inkscape:connector-curvature="0" /></g><g
           id="g108"
           transform="translate(537.7407,140.6118)"><path
             d="M 0,0 -1.567,-0.788 -0.646,-2.59 0.979,-1.902 0,0 Z"
             style="fill:#ffffff;fill-opacity:1;fill-rule:nonzero;stroke:none"
             id="path110"
             inkscape:connector-curvature="0" /></g><g
           id="g112"
           transform="translate(541.3257,133.0898)"><path
             d="M 0,0 -1.567,-0.788 -0.778,-2.356 0.789,-1.567 0,0 Z"
             style="fill:#ffffff;fill-opacity:1;fill-rule:nonzero;stroke:none"
             id="path114"
             inkscape:connector-curvature="0" /></g><g
           id="g116"
           transform="translate(493.0796,92.5063)"><path
             d="M 0,0 C 0.287,0.654 1.124,4.669 1.364,5.312"
             style="fill:none;stroke:#110f0d;stroke-width:0.5;stroke-linecap:butt;stroke-linejoin:miter;stroke-miterlimit:10;stroke-dasharray:none;stroke-opacity:1"
             id="path118"
             inkscape:connector-curvature="0" /></g><g
           id="g120"
           transform="translate(510.6313,128.6318)"><path
             d="m 0,0 c 2.038,-1.177 1.893,-4.56 2.079,-6.228 0.137,-1.236 0.615,-2.375 0.936,-3.565 0.677,-2.516 0.367,-5.932 -2.162,-7.362 -2.469,-1.397 -5.427,0.879 -7.644,1.844 -1.855,0.806 -5.767,1.59 -5.783,4.206 -0.006,0.904 0.581,2.079 1.599,2.131 1.149,0.059 1.138,-0.131 1.685,-0.937 0.707,2.667 0.026,2.95 -0.393,5.348 -0.512,2.934 1.368,4.476 4,5.436 C -3.166,1.791 -0.52,0.372 0,0"
             style="fill:#fccfa4;fill-opacity:1;fill-rule:nonzero;stroke:#110f0d;stroke-width:0.5;stroke-linecap:butt;stroke-linejoin:miter;stroke-miterlimit:10;stroke-dasharray:none;stroke-opacity:1"
             id="path122"
             inkscape:connector-curvature="0" /></g><g
           id="g124"
           transform="translate(497.2046,92.5063)"><path
             d="M 0,0 C 0.294,0.999 1.149,4.724 1.396,5.706"
             style="fill:none;stroke:#110f0d;stroke-width:0.5;stroke-linecap:butt;stroke-linejoin:miter;stroke-miterlimit:10;stroke-dasharray:none;stroke-opacity:1"
             id="path126"
             inkscape:connector-curvature="0" /></g><g
           id="g128"
           transform="translate(499.188,117.8037)"><path
             d="M 0,0 C 0.461,-0.097 1.581,-0.209 1.761,-0.756 1.553,-0.77 1.334,-0.768 1.126,-0.774 c -0.028,-0.088 -0.024,-0.246 0,-0.335 0.056,-0.014 0.118,0.007 0.168,-0.009"
             style="fill:none;stroke:#110f0d;stroke-width:0.5;stroke-linecap:butt;stroke-linejoin:miter;stroke-miterlimit:10;stroke-dasharray:none;stroke-opacity:1"
             id="path130"
             inkscape:connector-curvature="0" /></g><g
           id="g132"
           transform="translate(516.7124,113.043)"><path
             d="m 0,0 c 1.304,0.824 2.851,1.539 4.105,2.28 1.154,0.683 3,1.326 3.656,2.019 1.011,1.071 1.852,2.267 2.818,3.372 0.811,0.929 1.681,1.812 2.494,2.739 0.705,0.801 1.33,1.821 2.317,2.351 -0.333,0.461 -0.518,0.992 -0.724,1.524 -0.38,0.986 -0.415,1.764 0,2.726 0.337,0.784 0.644,1.395 1.697,1.401 0.99,0.005 0.369,-1.302 0.674,-1.563 0.126,-0.205 0.628,0.275 1.158,0.275 1.045,0 0.707,-0.938 0.567,-1.688 1.225,0.262 1.723,-1.639 0.714,-2.39 -0.167,-0.241 -0.472,-0.3 -0.93,-0.637 -0.863,-0.637 -1.662,-0.93 -2.439,-1.801 C 15.533,9.961 15.161,9.186 14.702,8.47 13.593,6.746 12.782,5.718 11.717,3.929 11.11,2.909 10.912,3.074 9.79,2.068 7.982,0.45 4.419,-1.327 2.799,-2.984 2.529,-3.259 2.052,-3.457 1.735,-3.653"
             style="fill:#fbcea5;fill-opacity:1;fill-rule:nonzero;stroke:#110f0d;stroke-width:0.5;stroke-linecap:butt;stroke-linejoin:miter;stroke-miterlimit:10;stroke-dasharray:none;stroke-opacity:1"
             id="path134"
             inkscape:connector-curvature="0" /></g><g
           id="g136"
           transform="translate(505.9771,109.8311)"><path
             d="m 0,0 c 0,-0.978 -0.673,-0.088 0.566,0.049 1.62,0.18 2.959,0.231 4.143,1.127 0.912,0.69 1.814,1.4 2.76,2.045 0.859,0.585 1.819,1.043 2.683,1.609 0.549,-1.177 0.852,-2.468 1.471,-3.624 0.497,-0.929 1.074,-1.793 1.695,-2.649 0.501,-0.691 1.534,-1.579 1.596,-2.4 -2.036,-0.105 -3.99,-0.449 -6.02,-0.643 C 7.836,-4.587 6.661,-4.565 5.633,-4.865 5.068,-5.029 5.01,-5.121 4.976,-5.689 c -0.132,-2.227 1.239,-9.907 1.658,-12.023 -0.067,0.286 -12.354,0.101 -13.098,0.004 -0.877,-0.11 0.264,1.796 0.446,4.158 0.206,0.604 0.7,1.467 0.7,2.14 0.072,-0.823 -0.578,-1.566 -0.762,-2.317 -0.088,-0.333 -5.72,1.276 -6.094,1.911 -0.691,1.174 0.345,2.915 0.376,4.183 0.034,1.406 -0.304,2.816 0.042,4.206 0.556,2.223 5.026,2.899 6.911,3.143 C -4.303,-2.076 -1.053,-3.979 0,0"
             style="fill:#f17a15;fill-opacity:1;fill-rule:nonzero;stroke:#110f0d;stroke-width:0.5;stroke-linecap:butt;stroke-linejoin:miter;stroke-miterlimit:10;stroke-dasharray:none;stroke-opacity:1"
             id="path138"
             inkscape:connector-curvature="0" /></g><g
           id="g140"
           transform="translate(507.0063,87.0542)"><path
             d="m 0,0 c 0,-1.64 -1.329,-2.969 -2.969,-2.969 -1.639,0 -2.969,1.329 -2.969,2.969 0,1.64 1.33,2.969 2.969,2.969 C -1.329,2.969 0,1.64 0,0"
             style="fill:#ffffff;fill-opacity:1;fill-rule:nonzero;stroke:none"
             id="path142"
             inkscape:connector-curvature="0" /></g><g
           id="g144"
           transform="translate(506.2563,87.0269)"><path
             d="m 0,0 c 0,-1.3 -0.998,-2.354 -2.229,-2.354 -1.231,0 -2.229,1.054 -2.229,2.354 0,1.3 0.998,2.354 2.229,2.354 C -0.998,2.354 0,1.3 0,0"
             style="fill:#100f0d;fill-opacity:1;fill-rule:nonzero;stroke:none"
             id="path146"
             inkscape:connector-curvature="0" /></g><g
           id="g148"
           transform="translate(497.5015,145.1909)"><path
             d="M 0,0 C 2.334,0.02 10.77,0.026 13.011,0"
             style="fill:none;stroke:#d8d7d5;stroke-width:0.5;stroke-linecap:butt;stroke-linejoin:miter;stroke-miterlimit:10;stroke-dasharray:none;stroke-opacity:1"
             id="path150"
             inkscape:connector-curvature="0" /></g><g
           id="g152"
           transform="translate(121.0835,122.4438)"><path
             d="m 0,0 c 1.696,2.856 3.311,5.711 4.846,8.568 1.534,2.856 2.947,5.733 4.24,8.63 l 10.407,0 C 17.194,12.68 14.813,8.302 12.354,4.066 9.894,-0.167 7.291,-4.422 4.549,-8.698 l 0,-16.034 -9.439,0 0,15.912 c -2.744,4.276 -5.355,8.551 -7.836,12.827 -2.48,4.275 -4.87,8.673 -7.169,13.191 l 10.951,0 c 1.288,-2.897 2.678,-5.774 4.169,-8.63 C -3.285,5.711 -1.693,2.856 0,0"
             style="fill:#f17a15;fill-opacity:1;fill-rule:nonzero;stroke:none"
             id="path154"
             inkscape:connector-curvature="0" /></g><g
           id="g156"
           transform="translate(160.3618,113.6846)"><path
             d="m 0,0 c 0,2.782 -0.555,4.971 -1.664,6.565 -1.109,1.594 -2.692,2.39 -4.75,2.39 -2.058,0 -3.65,-0.796 -4.779,-2.39 -1.13,-1.594 -1.694,-3.783 -1.694,-6.565 0,-2.782 0.564,-4.991 1.694,-6.625 1.129,-1.635 2.721,-2.451 4.779,-2.451 2.058,0 3.641,0.816 4.75,2.451 C -0.555,-4.991 0,-2.782 0,0 m 9.197,0 c 0,-2.501 -0.363,-4.79 -1.089,-6.867 -0.726,-2.079 -1.775,-3.852 -3.146,-5.324 -1.372,-1.474 -3.017,-2.613 -4.932,-3.42 -1.916,-0.806 -4.063,-1.21 -6.444,-1.21 -2.338,0 -4.468,0.404 -6.383,1.21 -1.916,0.807 -3.559,1.946 -4.931,3.42 -1.372,1.472 -2.441,3.245 -3.207,5.324 -0.766,2.077 -1.149,4.366 -1.149,6.867 0,2.501 0.394,4.78 1.18,6.838 0.787,2.056 1.875,3.81 3.268,5.264 1.391,1.45 3.044,2.58 4.96,3.387 1.916,0.805 4.003,1.211 6.262,1.211 2.3,0 4.408,-0.406 6.324,-1.211 C 1.825,14.682 3.469,13.552 4.841,12.102 6.212,10.648 7.28,8.894 8.048,6.838 8.813,4.78 9.197,2.501 9.197,0"
             style="fill:#f17a15;fill-opacity:1;fill-rule:nonzero;stroke:none"
             id="path158"
             inkscape:connector-curvature="0" /></g><g
           id="g160"
           transform="translate(203.6831,98.8008)"><path
             d="m 0,0 c -1.533,-0.443 -3.51,-0.857 -5.93,-1.242 -2.42,-0.383 -4.961,-0.573 -7.623,-0.573 -2.702,0 -4.953,0.363 -6.747,1.088 -1.794,0.727 -3.218,1.745 -4.264,3.055 -1.051,1.311 -1.797,2.876 -2.24,4.69 -0.444,1.815 -0.666,3.813 -0.666,5.99 l 0,17.727 9.017,0 0,-16.639 c 0,-2.904 0.382,-5.001 1.149,-6.291 0.765,-1.291 2.199,-1.937 4.295,-1.937 0.646,0 1.331,0.029 2.058,0.091 0.726,0.06 1.37,0.131 1.935,0.213 l 0,24.563 9.016,0 L 0,0 Z"
             style="fill:#f17a15;fill-opacity:1;fill-rule:nonzero;stroke:none"
             id="path162"
             inkscape:connector-curvature="0" /></g><g
           id="g164"
           transform="translate(211.8501,137.4629)"><path
             d="m 0,0 9.016,1.452 0,-9.379 10.831,0 0,-7.502 -10.831,0 0,-11.194 c 0,-1.895 0.333,-3.409 0.999,-4.537 0.664,-1.13 2.006,-1.694 4.021,-1.694 0.969,0 1.968,0.089 2.997,0.273 1.028,0.181 1.967,0.433 2.814,0.756 l 1.27,-7.02 c -1.089,-0.443 -2.3,-0.826 -3.631,-1.149 -1.331,-0.321 -2.965,-0.484 -4.901,-0.484 -2.461,0 -4.498,0.333 -6.11,0.999 -1.615,0.666 -2.906,1.593 -3.872,2.784 -0.968,1.189 -1.645,2.63 -2.028,4.324 C 0.191,-30.676 0,-28.801 0,-26.743 L 0,0 Z"
             style="fill:#f17a15;fill-opacity:1;fill-rule:nonzero;stroke:none"
             id="path166"
             inkscape:connector-curvature="0" /></g><g
           id="g168"
           transform="translate(239.0151,97.7119)"><path
             d="m 0,0 0,45.499 9.016,1.452 0,-15.247 c 0.606,0.201 1.382,0.392 2.33,0.574 0.947,0.183 1.866,0.273 2.753,0.273 2.581,0 4.729,-0.354 6.444,-1.06 1.713,-0.706 3.086,-1.702 4.115,-2.993 1.028,-1.292 1.753,-2.825 2.176,-4.598 0.424,-1.776 0.635,-3.753 0.635,-5.929 l 0,-17.971 -9.014,0 0,16.88 c 0,2.904 -0.373,4.961 -1.119,6.171 -0.746,1.211 -2.129,1.816 -4.145,1.816 -0.808,0 -1.563,-0.07 -2.267,-0.212 C 10.216,24.514 9.581,24.363 9.016,24.201 L 9.016,0 0,0 Z"
             style="fill:#f17a15;fill-opacity:1;fill-rule:nonzero;stroke:none"
             id="path170"
             inkscape:connector-curvature="0" /></g><g
           id="g172"
           transform="translate(286.3901,139.6416)"><path
             d="m 0,0 c 0.729,-1.332 1.568,-2.975 2.519,-4.931 0.95,-1.958 1.941,-4.074 2.97,-6.353 1.032,-2.28 2.055,-4.609 3.065,-6.989 1.01,-2.38 1.962,-4.62 2.852,-6.715 0.889,2.095 1.841,4.335 2.852,6.715 1.01,2.38 2.03,4.709 3.062,6.989 1.033,2.279 2.023,4.395 2.973,6.353 0.95,1.956 1.79,3.599 2.519,4.931 l 8.591,0 c 0.403,-2.785 0.778,-5.899 1.12,-9.347 0.342,-3.45 0.644,-7.041 0.908,-10.77 0.262,-3.732 0.503,-7.473 0.725,-11.225 0.222,-3.752 0.413,-7.282 0.575,-10.588 l -9.197,0 c -0.12,4.073 -0.283,8.509 -0.483,13.311 -0.204,4.799 -0.505,9.64 -0.907,14.521 -0.73,-1.694 -1.539,-3.57 -2.429,-5.627 -0.892,-2.057 -1.772,-4.115 -2.641,-6.171 -0.869,-2.059 -1.71,-4.024 -2.517,-5.9 -0.81,-1.876 -1.498,-3.479 -2.064,-4.809 l -6.596,0 c -0.567,1.33 -1.255,2.933 -2.064,4.809 -0.81,1.876 -1.65,3.841 -2.52,5.9 -0.87,2.056 -1.75,4.114 -2.639,6.171 -0.89,2.057 -1.7,3.933 -2.428,5.627 -0.404,-4.881 -0.706,-9.722 -0.907,-14.521 -0.202,-4.802 -0.363,-9.238 -0.485,-13.311 l -9.195,0 c 0.159,3.306 0.351,6.836 0.573,10.588 0.222,3.752 0.464,7.493 0.728,11.225 0.26,3.729 0.563,7.32 0.905,10.77 0.344,3.448 0.716,6.562 1.121,9.347 L 0,0 Z"
             style="fill:#100f0d;fill-opacity:1;fill-rule:nonzero;stroke:none"
             id="path174"
             inkscape:connector-curvature="0" /></g><g
           id="g176"
           transform="translate(349.4966,113.6846)"><path
             d="m 0,0 c 0,2.782 -0.555,4.971 -1.662,6.565 -1.11,1.594 -2.692,2.39 -4.75,2.39 -2.057,0 -3.651,-0.796 -4.78,-2.39 -1.129,-1.594 -1.695,-3.783 -1.695,-6.565 0,-2.782 0.566,-4.991 1.695,-6.625 1.129,-1.635 2.723,-2.451 4.78,-2.451 2.058,0 3.64,0.816 4.75,2.451 C -0.555,-4.991 0,-2.782 0,0 m 9.199,0 c 0,-2.501 -0.365,-4.79 -1.092,-6.867 -0.723,-2.079 -1.774,-3.852 -3.144,-5.324 -1.372,-1.474 -3.017,-2.613 -4.933,-3.42 -1.916,-0.806 -4.064,-1.21 -6.442,-1.21 -2.34,0 -4.47,0.404 -6.384,1.21 -1.916,0.807 -3.558,1.946 -4.932,3.42 -1.371,1.472 -2.441,3.245 -3.207,5.324 -0.766,2.077 -1.148,4.366 -1.148,6.867 0,2.501 0.394,4.78 1.179,6.838 0.788,2.056 1.877,3.81 3.266,5.264 1.393,1.45 3.046,2.58 4.963,3.387 1.915,0.805 4.001,1.211 6.263,1.211 2.299,0 4.406,-0.406 6.322,-1.211 C 1.828,14.682 3.47,13.552 4.842,12.102 6.211,10.648 7.282,8.894 8.047,6.838 8.813,4.78 9.199,2.501 9.199,0"
             style="fill:#100f0d;fill-opacity:1;fill-rule:nonzero;stroke:none"
             id="path178"
             inkscape:connector-curvature="0" /></g><g
           id="g180"
           transform="translate(386.0405,113.8657)"><path
             d="m 0,0 c 0,5.809 -2.137,8.713 -6.413,8.713 -0.929,0 -1.844,-0.122 -2.75,-0.363 -0.909,-0.242 -1.645,-0.545 -2.209,-0.908 l 0,-16.396 c 0.442,-0.082 1.007,-0.151 1.693,-0.213 0.687,-0.059 1.433,-0.09 2.239,-0.09 2.461,0 4.316,0.848 5.567,2.542 C -0.625,-5.022 0,-2.784 0,0 m 9.198,-0.242 c 0,-2.542 -0.374,-4.841 -1.118,-6.898 -0.75,-2.057 -1.826,-3.811 -3.236,-5.261 -1.413,-1.454 -3.151,-2.575 -5.206,-3.36 -2.056,-0.786 -4.398,-1.18 -7.021,-1.18 -1.086,0 -2.226,0.052 -3.416,0.15 -1.187,0.102 -2.36,0.235 -3.51,0.394 -1.148,0.162 -2.249,0.353 -3.296,0.576 -1.048,0.22 -1.978,0.453 -2.786,0.695 l 0,44.471 9.019,1.452 0,-15.851 c 1.007,0.442 2.056,0.785 3.143,1.028 1.092,0.242 2.259,0.362 3.512,0.362 2.259,0 4.254,-0.394 5.988,-1.178 C 3.005,14.37 4.458,13.25 5.628,11.799 6.798,10.346 7.687,8.602 8.292,6.565 8.896,4.529 9.198,2.26 9.198,-0.242"
             style="fill:#100f0d;fill-opacity:1;fill-rule:nonzero;stroke:none"
             id="path182"
             inkscape:connector-curvature="0" /></g><path
           d="m 411.211,97.712 -9.016,0 0,31.824 9.016,0 0,-31.824 z m 0.848,41.022 c 0,-1.655 -0.535,-2.955 -1.603,-3.903 -1.072,-0.948 -2.331,-1.422 -3.782,-1.422 -1.453,0 -2.713,0.474 -3.784,1.422 -1.068,0.948 -1.603,2.248 -1.603,3.903 0,1.652 0.535,2.955 1.603,3.903 1.071,0.947 2.331,1.421 3.784,1.421 1.451,0 2.71,-0.474 3.782,-1.421 1.068,-0.948 1.603,-2.251 1.603,-3.903"
           style="fill:#100f0d;fill-opacity:1;fill-rule:nonzero;stroke:none"
           id="path184"
           inkscape:connector-curvature="0" /><g
           id="g186"
           transform="translate(432.3862,97.1069)"><path
             d="m 0,0 c -2.62,0.041 -4.748,0.324 -6.384,0.847 -1.633,0.522 -2.924,1.259 -3.874,2.207 -0.946,0.95 -1.592,2.099 -1.933,3.45 -0.342,1.35 -0.513,2.873 -0.513,4.567 l 0,35.033 9.013,1.452 0,-34.67 c 0,-0.807 0.061,-1.532 0.182,-2.177 C -3.387,10.063 -3.155,9.52 -2.813,9.076 -2.473,8.63 -1.978,8.269 -1.328,7.985 -0.686,7.703 0.183,7.521 1.271,7.44 L 0,0 Z"
             style="fill:#100f0d;fill-opacity:1;fill-rule:nonzero;stroke:none"
             id="path188"
             inkscape:connector-curvature="0" /></g><g
           id="g190"
           transform="translate(458.4663,116.8315)"><path
             d="M 0,0 C -0.043,0.765 -0.174,1.512 -0.396,2.238 -0.617,2.965 -0.961,3.607 -1.425,4.175 -1.888,4.74 -2.473,5.203 -3.176,5.566 -3.886,5.93 -4.76,6.109 -5.811,6.109 -6.818,6.109 -7.687,5.938 -8.41,5.597 -9.14,5.253 -9.742,4.8 -10.226,4.234 -10.709,3.668 -11.083,3.014 -11.347,2.269 -11.609,1.52 -11.801,0.765 -11.92,0 L 0,0 Z m -21.179,-3.449 c 0,2.823 0.432,5.293 1.301,7.41 0.868,2.119 2.006,3.884 3.419,5.297 1.413,1.411 3.034,2.479 4.869,3.206 1.836,0.725 3.721,1.089 5.657,1.089 4.517,0 8.087,-1.383 10.71,-4.146 C 7.4,6.645 8.712,2.58 8.712,-2.785 8.712,-3.308 8.691,-3.882 8.65,-4.509 8.607,-5.133 8.569,-5.687 8.529,-6.172 l -20.449,0 c 0.2,-1.856 1.068,-3.327 2.598,-4.418 1.534,-1.089 3.593,-1.633 6.175,-1.633 1.653,0 3.274,0.152 4.87,0.454 1.592,0.301 2.892,0.675 3.902,1.121 l 1.211,-7.322 c -0.484,-0.243 -1.13,-0.484 -1.938,-0.727 -0.804,-0.24 -1.705,-0.454 -2.689,-0.634 -0.99,-0.182 -2.05,-0.333 -3.179,-0.455 -1.129,-0.121 -2.261,-0.182 -3.39,-0.182 -2.864,0 -5.353,0.424 -7.47,1.271 -2.119,0.848 -3.873,2.007 -5.266,3.48 -1.389,1.471 -2.421,3.215 -3.084,5.233 -0.666,2.015 -0.999,4.194 -0.999,6.535"
             style="fill:#100f0d;fill-opacity:1;fill-rule:nonzero;stroke:none"
             id="path192"
             inkscape:connector-curvature="0" /></g></g></g></g></svg>